<?xml version="1.0" encoding="UTF-8" standalone="no"?>
<!DOCTYPE svg PUBLIC "-//W3C//DTD SVG 1.1//EN" "http://www.w3.org/Graphics/SVG/1.1/DTD/svg11.dtd">
<svg version="1.1" xmlns="http://www.w3.org/2000/svg" xmlns:xlink="http://www.w3.org/1999/xlink" preserveAspectRatio="xMidYMid meet" viewBox="0 0 250 82" width="250" height="82"><defs><path d="M52.37 20.72C52.79 20.98 53.28 21.14 53.95 21.14C54.83 21.14 55.56 20.69 55.56 19.67C55.56 18.27 52.28 18.1 52.28 16.22C52.28 15.08 53.28 14.36 54.54 14.36C54.89 14.36 55.45 14.41 55.95 14.6C55.93 14.66 55.84 15.18 55.83 15.24C55.52 15.07 55.01 14.97 54.53 14.97C53.8 14.97 52.99 15.28 52.99 16.2C52.99 17.64 56.26 17.65 56.26 19.74C56.26 21.18 55.02 21.75 53.92 21.75C53.22 21.75 52.68 21.61 52.3 21.44C52.32 21.3 52.36 20.86 52.37 20.72Z" id="a9e7towZ"></path><path d="M61.81 17.1C61.46 16.95 61.04 16.84 60.7 16.84C59.44 16.84 58.73 17.75 58.73 19.02C58.73 20.21 59.45 21.2 60.62 21.2C61.03 21.2 61.41 21.11 61.8 20.96C61.81 21.02 61.86 21.51 61.86 21.57C61.42 21.72 61.01 21.75 60.52 21.75C58.84 21.75 58.02 20.47 58.02 19.02C58.02 17.41 59.06 16.28 60.6 16.28C61.23 16.28 61.68 16.43 61.86 16.49C61.85 16.61 61.82 16.98 61.81 17.1Z" id="a6uJhP6jj"></path><path d="M63.76 13.95L64.4 13.95L64.4 17.29C64.41 17.29 64.42 17.29 64.42 17.29C64.7 16.72 65.28 16.28 66.05 16.28C67.45 16.28 67.83 17.22 67.83 18.51C67.83 18.71 67.83 19.76 67.83 21.63L67.18 21.63C67.18 19.76 67.18 18.72 67.18 18.52C67.18 17.62 67.01 16.84 65.95 16.84C64.8 16.84 64.4 17.92 64.4 18.83C64.4 19.02 64.4 19.95 64.4 21.63L63.76 21.63L63.76 13.95Z" id="a3JLbJxX6H"></path><path d="M75.61 21.63L74.83 21.63L73.41 17.11L73.39 17.11L71.97 21.63L71.19 21.63L69.51 16.41L70.21 16.41L71.59 20.92L71.61 20.92L73.06 16.41L73.84 16.41L75.22 20.92L75.24 20.92L76.68 16.41L77.33 16.41L75.61 21.63Z" id="g16oZT6RBo"></path><path d="M82.19 18.65C82.19 17.74 81.82 16.84 80.86 16.84C79.91 16.84 79.33 17.79 79.33 18.65C79.9 18.65 81.62 18.65 82.19 18.65ZM82.51 21.47C82.06 21.65 81.48 21.75 80.99 21.75C79.26 21.75 78.62 20.58 78.62 19.02C78.62 17.42 79.5 16.28 80.82 16.28C82.29 16.28 82.9 17.47 82.9 18.88C82.9 18.9 82.9 19.01 82.9 19.2C80.75 19.2 79.56 19.2 79.33 19.2C79.33 20.31 79.92 21.2 81.05 21.2C81.52 21.2 82.2 21 82.51 20.81C82.51 20.94 82.51 21.33 82.51 21.47Z" id="l5p2gyp8af"></path><path d="M84.92 16.41L85.57 16.41L85.57 21.63L84.92 21.63L84.92 16.41ZM85.57 15.02L84.92 15.02L84.92 14.16L85.57 14.16L85.57 15.02Z" id="avMTC3gg6"></path><path d="M87.51 21.09L90.66 16.96L87.64 16.96L87.64 16.41L91.4 16.41L91.4 16.96L88.26 21.08L91.4 21.08L91.4 21.63L87.51 21.63L87.51 21.09Z" id="a1ni8t1cV"></path><path d="M96.52 18.65C96.52 17.74 96.15 16.84 95.19 16.84C94.24 16.84 93.66 17.79 93.66 18.65C94.23 18.65 95.95 18.65 96.52 18.65ZM96.84 21.47C96.39 21.65 95.81 21.75 95.32 21.75C93.59 21.75 92.95 20.58 92.95 19.02C92.95 17.42 93.83 16.28 95.15 16.28C96.62 16.28 97.23 17.47 97.23 18.88C97.23 18.9 97.23 19.01 97.23 19.2C95.08 19.2 93.89 19.2 93.66 19.2C93.66 20.31 94.25 21.2 95.38 21.2C95.85 21.2 96.53 21 96.84 20.81C96.84 20.94 96.84 21.33 96.84 21.47Z" id="c4GVu8Sz6x"></path><path d="M99.26 17.57C99.26 17 99.26 16.79 99.21 16.41C99.26 16.41 99.47 16.41 99.86 16.41L99.86 17.41C99.87 17.41 99.88 17.41 99.88 17.41C100.12 16.83 100.56 16.28 101.22 16.28C101.37 16.28 101.56 16.32 101.67 16.35C101.67 16.41 101.67 16.95 101.67 17.02C101.54 16.98 101.36 16.96 101.2 16.96C100.18 16.96 99.9 18.11 99.9 19.05C99.9 19.22 99.9 20.08 99.9 21.63L99.26 21.63C99.26 19.47 99.26 18.12 99.26 17.57Z" id="a39YiXFoU"></path><path d="M103.46 16.41L104.11 16.41L104.11 21.63L103.46 21.63L103.46 16.41ZM104.11 15.02L103.46 15.02L103.46 14.16L104.11 14.16L104.11 15.02Z" id="b3NMuU4Qh"></path><path d="M106.13 20.87C106.52 21.07 106.99 21.2 107.5 21.2C108.11 21.2 108.65 20.86 108.65 20.27C108.65 19.03 106.14 19.22 106.14 17.71C106.14 16.67 106.98 16.28 107.84 16.28C108.12 16.28 108.67 16.35 109.13 16.52C109.13 16.58 109.08 17.03 109.07 17.08C108.73 16.93 108.27 16.84 107.92 16.84C107.25 16.84 106.79 17.04 106.79 17.71C106.79 18.68 109.36 18.56 109.36 20.27C109.36 21.37 108.32 21.75 107.54 21.75C107.03 21.75 106.53 21.69 106.07 21.51C106.08 21.38 106.12 21 106.13 20.87Z" id="b2UMO6zSDt"></path><path d="M114.71 17.1C114.36 16.95 113.94 16.84 113.6 16.84C112.34 16.84 111.63 17.75 111.63 19.02C111.63 20.21 112.35 21.2 113.52 21.2C113.93 21.2 114.31 21.11 114.7 20.96C114.71 21.02 114.76 21.51 114.76 21.57C114.32 21.72 113.91 21.75 113.42 21.75C111.74 21.75 110.92 20.47 110.92 19.02C110.92 17.41 111.96 16.28 113.5 16.28C114.13 16.28 114.58 16.43 114.76 16.49C114.75 16.61 114.72 16.98 114.71 17.1Z" id="amAV2A9I9"></path><path d="M116.66 13.95L117.3 13.95L117.3 17.29C117.31 17.29 117.32 17.29 117.32 17.29C117.6 16.72 118.18 16.28 118.95 16.28C120.35 16.28 120.73 17.22 120.73 18.51C120.73 18.71 120.73 19.76 120.73 21.63L120.09 21.63C120.09 19.76 120.09 18.72 120.09 18.52C120.09 17.62 119.91 16.84 118.85 16.84C117.7 16.84 117.3 17.92 117.3 18.83C117.3 19.02 117.3 19.95 117.3 21.63L116.66 21.63L116.66 13.95Z" id="c1M7hrP5ot"></path><path d="M126.33 18.65C126.33 17.74 125.96 16.84 125 16.84C124.05 16.84 123.46 17.79 123.46 18.65C124.04 18.65 125.76 18.65 126.33 18.65ZM126.65 21.47C126.2 21.65 125.61 21.75 125.13 21.75C123.4 21.75 122.76 20.58 122.76 19.02C122.76 17.42 123.64 16.28 124.96 16.28C126.43 16.28 127.04 17.47 127.04 18.88C127.04 18.9 127.04 19.01 127.04 19.2C124.89 19.2 123.7 19.2 123.46 19.2C123.46 20.31 124.06 21.2 125.18 21.2C125.65 21.2 126.34 21 126.65 20.81C126.65 20.94 126.65 21.33 126.65 21.47Z" id="bBetT3fgJ"></path><path d="M132.47 14.48L135.97 14.48L135.97 15.1L133.18 15.1L133.18 17.65L135.83 17.65L135.83 18.26L133.18 18.26L133.18 21.01L136.09 21.01L136.09 21.63L132.47 21.63L132.47 14.48Z" id="bcKd0cZ46"></path><path d="M138.32 16.41L138.96 16.41L138.96 21.63L138.32 21.63L138.32 16.41ZM138.96 15.02L138.32 15.02L138.32 14.16L138.96 14.16L138.96 15.02Z" id="b3mbsd9qh"></path><path d="M144.88 19.02C144.88 18.07 144.48 16.84 143.33 16.84C142.1 16.84 141.79 18 141.79 19.02C141.79 20.03 142.1 21.2 143.33 21.2C144.48 21.2 144.88 19.97 144.88 19.02ZM145.52 21.63L144.88 21.63L144.88 20.8C144.87 20.8 144.86 20.8 144.86 20.8C144.51 21.47 143.98 21.75 143.23 21.75C141.8 21.75 141.08 20.56 141.08 19.02C141.08 17.43 141.69 16.28 143.23 16.28C144.25 16.28 144.76 17.03 144.86 17.29C144.86 17.29 144.87 17.29 144.88 17.29L144.88 13.95L145.52 13.95L145.52 21.63Z" id="e13JhmmTXd"></path><path d="M151.37 19.02C151.37 17.76 151 16.84 149.82 16.84C148.59 16.84 148.28 18 148.28 19.02C148.28 20.04 148.69 21.08 149.78 21.08C150.95 21.08 151.37 19.97 151.37 19.02ZM152.01 21.2C152.01 22.65 151.36 23.84 149.57 23.84C148.88 23.84 148.26 23.65 147.99 23.56C148 23.5 148.04 22.98 148.04 22.92C148.44 23.12 149.01 23.29 149.58 23.29C151.24 23.29 151.38 22.08 151.38 20.61C151.38 20.61 151.36 20.61 151.36 20.61C151.01 21.36 150.44 21.63 149.77 21.63C148.1 21.63 147.57 20.18 147.57 19.02C147.57 17.43 148.18 16.28 149.72 16.28C150.42 16.28 150.87 16.38 151.35 17C151.35 17 151.36 17 151.37 17L151.37 16.41L152.01 16.41C152.01 18.96 152.01 20.56 152.01 21.2Z" id="bfbYBKR86"></path><path d="M157.55 18.65C157.55 17.74 157.18 16.84 156.22 16.84C155.27 16.84 154.68 17.79 154.68 18.65C155.26 18.65 156.98 18.65 157.55 18.65ZM157.87 21.47C157.42 21.65 156.83 21.75 156.35 21.75C154.62 21.75 153.98 20.58 153.98 19.02C153.98 17.42 154.86 16.28 156.18 16.28C157.65 16.28 158.26 17.47 158.26 18.88C158.26 18.9 158.26 19.01 158.26 19.2C156.11 19.2 154.92 19.2 154.68 19.2C154.68 20.31 155.28 21.2 156.4 21.2C156.87 21.2 157.56 21 157.87 20.81C157.87 20.94 157.87 21.33 157.87 21.47Z" id="e67ZGyFF3"></path><path d="M160.28 17.64C160.28 17.24 160.28 16.83 160.24 16.41C160.28 16.41 160.49 16.41 160.87 16.41L160.87 17.34C160.88 17.34 160.89 17.34 160.89 17.34C161.1 16.87 161.49 16.28 162.58 16.28C163.87 16.28 164.36 17.14 164.36 18.29C164.36 18.51 164.36 19.63 164.36 21.63L163.71 21.63C163.71 19.72 163.71 18.67 163.71 18.46C163.71 17.47 163.37 16.84 162.47 16.84C161.3 16.84 160.93 17.87 160.93 18.74C160.93 18.93 160.93 19.9 160.93 21.63L160.28 21.63C160.28 19.5 160.28 18.17 160.28 17.64Z" id="a2e9oAbnXv"></path><path d="M170.54 19.02C170.54 17.81 169.94 16.84 168.81 16.84C167.68 16.84 167.08 17.81 167.08 19.02C167.08 20.23 167.68 21.2 168.81 21.2C169.94 21.2 170.54 20.23 170.54 19.02ZM171.25 19.02C171.25 20.44 170.5 21.75 168.81 21.75C167.12 21.75 166.37 20.44 166.37 19.02C166.37 17.6 167.12 16.28 168.81 16.28C170.5 16.28 171.25 17.6 171.25 19.02Z" id="c3JuERA78"></path><path d="M172.86 20.87C173.25 21.07 173.72 21.2 174.23 21.2C174.84 21.2 175.38 20.86 175.38 20.27C175.38 19.03 172.87 19.22 172.87 17.71C172.87 16.67 173.71 16.28 174.57 16.28C174.85 16.28 175.4 16.35 175.86 16.52C175.86 16.58 175.81 17.03 175.8 17.08C175.46 16.93 175 16.84 174.65 16.84C173.98 16.84 173.52 17.04 173.52 17.71C173.52 18.68 176.09 18.56 176.09 20.27C176.09 21.37 175.05 21.75 174.27 21.75C173.76 21.75 173.26 21.69 172.8 21.51C172.81 21.38 172.85 21 172.86 20.87Z" id="f1KvmPq81X"></path><path d="M177.64 20.87C178.03 21.07 178.5 21.2 179.01 21.2C179.62 21.2 180.16 20.86 180.16 20.27C180.16 19.03 177.65 19.22 177.65 17.71C177.65 16.67 178.49 16.28 179.35 16.28C179.63 16.28 180.18 16.35 180.64 16.52C180.64 16.58 180.59 17.03 180.58 17.08C180.24 16.93 179.78 16.84 179.43 16.84C178.76 16.84 178.3 17.04 178.3 17.71C178.3 18.68 180.87 18.56 180.87 20.27C180.87 21.37 179.83 21.75 179.05 21.75C178.54 21.75 178.04 21.69 177.58 21.51C177.59 21.38 177.63 21 177.64 20.87Z" id="dnN2dwk7U"></path><path d="M186.01 18.65C186.01 17.74 185.64 16.84 184.68 16.84C183.72 16.84 183.14 17.79 183.14 18.65C183.71 18.65 185.43 18.65 186.01 18.65ZM186.32 21.47C185.87 21.65 185.29 21.75 184.81 21.75C183.08 21.75 182.43 20.58 182.43 19.02C182.43 17.42 183.31 16.28 184.64 16.28C186.11 16.28 186.71 17.47 186.71 18.88C186.71 18.9 186.71 19.01 186.71 19.2C184.57 19.2 183.38 19.2 183.14 19.2C183.14 20.31 183.73 21.2 184.86 21.2C185.33 21.2 186.02 21 186.32 20.81C186.32 20.94 186.32 21.33 186.32 21.47Z" id="a10N3UagKP"></path><path d="M188.74 17.64C188.74 17.24 188.74 16.83 188.7 16.41C188.74 16.41 188.95 16.41 189.32 16.41L189.32 17.34C189.34 17.34 189.34 17.34 189.34 17.34C189.56 16.87 189.95 16.28 191.03 16.28C192.32 16.28 192.81 17.14 192.81 18.29C192.81 18.51 192.81 19.63 192.81 21.63L192.17 21.63C192.17 19.72 192.17 18.67 192.17 18.46C192.17 17.47 191.82 16.84 190.93 16.84C189.75 16.84 189.39 17.87 189.39 18.74C189.39 18.93 189.39 19.9 189.39 21.63L188.74 21.63C188.74 19.5 188.74 18.17 188.74 17.64Z" id="c2kRPRZKQD"></path><path d="M194.83 20.87C195.22 21.07 195.69 21.2 196.19 21.2C196.81 21.2 197.35 20.86 197.35 20.27C197.35 19.03 194.84 19.22 194.84 17.71C194.84 16.67 195.68 16.28 196.54 16.28C196.82 16.28 197.37 16.35 197.83 16.52C197.82 16.58 197.77 17.03 197.77 17.08C197.43 16.93 196.97 16.84 196.61 16.84C195.95 16.84 195.49 17.04 195.49 17.71C195.49 18.68 198.06 18.56 198.06 20.27C198.06 21.37 197.02 21.75 196.23 21.75C195.73 21.75 195.23 21.69 194.77 21.51C194.78 21.38 194.82 21 194.83 20.87Z" id="f6wzarIGpr"></path><path d="M203.41 17.1C203.06 16.95 202.64 16.84 202.29 16.84C201.03 16.84 200.33 17.75 200.33 19.02C200.33 20.21 201.04 21.2 202.22 21.2C202.63 21.2 203.01 21.11 203.4 20.96C203.41 21.02 203.45 21.51 203.46 21.57C203.02 21.72 202.61 21.75 202.12 21.75C200.44 21.75 199.62 20.47 199.62 19.02C199.62 17.41 200.65 16.28 202.2 16.28C202.83 16.28 203.28 16.43 203.46 16.49C203.45 16.61 203.42 16.98 203.41 17.1Z" id="n1ixjJOo4n"></path><path d="M205.35 13.95L206 13.95L206 17.29C206.01 17.29 206.02 17.29 206.02 17.29C206.3 16.72 206.88 16.28 207.65 16.28C209.05 16.28 209.43 17.22 209.43 18.51C209.43 18.71 209.43 19.76 209.43 21.63L208.78 21.63C208.78 19.76 208.78 18.72 208.78 18.52C208.78 17.62 208.61 16.84 207.54 16.84C206.4 16.84 206 17.92 206 18.83C206 19.02 206 19.95 206 21.63L205.35 21.63L205.35 13.95Z" id="aVeHLuksp"></path><path d="M214.78 19C214.67 19 214.61 19 214.6 19C213.48 19 212.15 19.11 212.15 20.26C212.15 20.94 212.64 21.2 213.23 21.2C214.75 21.2 214.78 19.88 214.78 19.32C214.78 19.27 214.78 19.17 214.78 19ZM214.84 20.79C214.83 20.79 214.82 20.79 214.82 20.79C214.54 21.41 213.81 21.75 213.16 21.75C211.68 21.75 211.44 20.75 211.44 20.28C211.44 18.53 213.31 18.45 214.66 18.45C214.67 18.45 214.71 18.45 214.78 18.45C214.78 18.29 214.78 18.2 214.78 18.18C214.78 17.29 214.46 16.84 213.59 16.84C213.05 16.84 212.54 16.96 212.06 17.27C212.06 17.21 212.06 16.71 212.06 16.64C212.46 16.45 213.13 16.28 213.59 16.28C214.88 16.28 215.43 16.87 215.43 18.23C215.43 18.46 215.43 20.3 215.43 20.53C215.43 20.95 215.43 21.27 215.48 21.63C215.43 21.63 215.22 21.63 214.84 21.63L214.84 20.79Z" id="b1WZDpC5N8"></path><path d="M218.2 16.96L217.15 16.96L217.15 16.41L218.2 16.41C218.2 16.18 218.2 16.05 218.2 16.03C218.2 14.93 218.24 13.83 219.58 13.83C219.79 13.83 220.06 13.86 220.19 13.93C220.18 13.99 220.15 14.44 220.14 14.49C220.01 14.42 219.82 14.38 219.63 14.38C218.75 14.38 218.84 15.33 218.84 15.96C218.84 15.99 218.84 16.14 218.84 16.41L220.02 16.41L220.02 16.96L218.84 16.96L218.84 21.63L218.2 21.63L218.2 16.96Z" id="cLcvQpoRe"></path><path d="M224.22 16.96L223.03 16.96C223.03 18.99 223.03 20.11 223.03 20.34C223.03 20.81 223.21 21.2 223.73 21.2C223.97 21.2 224.14 21.15 224.32 21.08C224.32 21.13 224.36 21.56 224.36 21.61C224.21 21.67 223.89 21.75 223.57 21.75C222.43 21.75 222.39 20.96 222.39 20.01C222.39 19.81 222.39 18.79 222.39 16.96L221.36 16.96L221.36 16.41L222.39 16.41L222.39 15.15L223.03 14.92L223.03 16.41L224.22 16.41L224.22 16.96Z" id="b3ZACjFVcz"></path><path d="M57.39 29.4C56.94 29.17 56.29 29.1 55.79 29.1C53.94 29.1 52.9 30.41 52.9 32.18C52.9 33.98 53.91 35.26 55.79 35.26C56.26 35.26 56.98 35.2 57.39 34.95C57.39 35.01 57.43 35.5 57.43 35.57C57.04 35.8 56.24 35.87 55.79 35.87C53.54 35.87 52.19 34.39 52.19 32.18C52.19 30.01 53.58 28.48 55.79 28.48C56.21 28.48 57.06 28.55 57.43 28.75C57.42 28.88 57.4 29.27 57.39 29.4Z" id="a1KIdsVDrm"></path><path d="M63.55 33.14C63.55 31.93 62.95 30.96 61.82 30.96C60.7 30.96 60.09 31.93 60.09 33.14C60.09 34.35 60.7 35.32 61.82 35.32C62.95 35.32 63.55 34.35 63.55 33.14ZM64.26 33.14C64.26 34.56 63.51 35.87 61.82 35.87C60.13 35.87 59.39 34.56 59.39 33.14C59.39 31.72 60.13 30.41 61.82 30.41C63.51 30.41 64.26 31.72 64.26 33.14Z" id="bvZWYR5zt"></path><path d="M66.27 31.76C66.27 31.36 66.27 30.95 66.23 30.53C66.28 30.53 66.48 30.53 66.86 30.53L66.86 31.46C66.87 31.46 66.88 31.46 66.88 31.46C67.09 30.99 67.48 30.41 68.57 30.41C69.86 30.41 70.35 31.27 70.35 32.41C70.35 32.64 70.35 33.75 70.35 35.75L69.7 35.75C69.7 33.85 69.7 32.79 69.7 32.58C69.7 31.59 69.36 30.96 68.47 30.96C67.29 30.96 66.92 31.99 66.92 32.86C66.92 33.06 66.92 34.02 66.92 35.75L66.27 35.75C66.27 33.62 66.27 32.29 66.27 31.76Z" id="avCDzBKaL"></path><path d="M73.2 31.08L72.15 31.08L72.15 30.53L73.2 30.53C73.2 30.3 73.2 30.18 73.2 30.15C73.2 29.06 73.25 27.95 74.59 27.95C74.79 27.95 75.07 27.98 75.19 28.05C75.19 28.11 75.15 28.56 75.15 28.61C75.02 28.54 74.82 28.5 74.64 28.5C73.76 28.5 73.85 29.45 73.85 30.08C73.85 30.11 73.85 30.26 73.85 30.53L75.03 30.53L75.03 31.08L73.85 31.08L73.85 35.75L73.2 35.75L73.2 31.08Z" id="b6d3kO4yR"></path><path d="M79.08 28.51L79.89 28.51L78.6 29.99L78.13 29.99L79.08 28.51ZM80.15 32.77C80.15 31.86 79.79 30.96 78.82 30.96C77.87 30.96 77.29 31.91 77.29 32.77C77.86 32.77 79.58 32.77 80.15 32.77ZM80.47 35.59C80.02 35.77 79.44 35.87 78.96 35.87C77.23 35.87 76.58 34.71 76.58 33.14C76.58 31.54 77.46 30.41 78.78 30.41C80.26 30.41 80.86 31.59 80.86 33C80.86 33.02 80.86 33.13 80.86 33.32C78.72 33.32 77.53 33.32 77.29 33.32C77.29 34.43 77.88 35.32 79.01 35.32C79.48 35.32 80.17 35.13 80.47 34.93C80.47 35.06 80.47 35.46 80.47 35.59Z" id="a10GiqVZm3"></path><path d="M86.38 33.14C86.38 32.19 85.98 30.96 84.83 30.96C83.6 30.96 83.29 32.13 83.29 33.14C83.29 34.15 83.6 35.32 84.83 35.32C85.98 35.32 86.38 34.09 86.38 33.14ZM87.02 35.75L86.38 35.75L86.38 34.92C86.37 34.92 86.36 34.92 86.36 34.92C86.01 35.59 85.48 35.87 84.73 35.87C83.3 35.87 82.58 34.69 82.58 33.14C82.58 31.55 83.19 30.41 84.73 30.41C85.75 30.41 86.27 31.15 86.36 31.41C86.36 31.41 86.37 31.41 86.38 31.41L86.38 28.07L87.02 28.07L87.02 35.75Z" id="a6TJApwSId"></path><path d="M91.49 28.51L92.29 28.51L91 29.99L90.53 29.99L91.49 28.51ZM92.56 32.77C92.56 31.86 92.19 30.96 91.23 30.96C90.28 30.96 89.69 31.91 89.69 32.77C90.27 32.77 91.99 32.77 92.56 32.77ZM92.88 35.59C92.43 35.77 91.84 35.87 91.36 35.87C89.63 35.87 88.99 34.71 88.99 33.14C88.99 31.54 89.87 30.41 91.19 30.41C92.66 30.41 93.27 31.59 93.27 33C93.27 33.02 93.27 33.13 93.27 33.32C91.12 33.32 89.93 33.32 89.69 33.32C89.69 34.43 90.29 35.32 91.41 35.32C91.88 35.32 92.57 35.13 92.88 34.93C92.88 35.06 92.88 35.46 92.88 35.59Z" id="e7yWq3wJ9T"></path><path d="M95.29 31.7C95.29 31.12 95.29 30.91 95.25 30.53C95.3 30.53 95.51 30.53 95.9 30.53L95.9 31.53C95.91 31.53 95.92 31.53 95.92 31.53C96.15 30.95 96.59 30.41 97.26 30.41C97.41 30.41 97.6 30.44 97.71 30.47C97.71 30.54 97.71 31.08 97.71 31.14C97.58 31.1 97.4 31.08 97.24 31.08C96.22 31.08 95.94 32.23 95.94 33.17C95.94 33.34 95.94 34.2 95.94 35.75L95.29 35.75C95.29 33.59 95.29 32.24 95.29 31.7Z" id="b3jIu2mPXq"></path><path d="M102.44 33.12C102.33 33.12 102.27 33.12 102.25 33.12C101.14 33.12 99.81 33.23 99.81 34.38C99.81 35.06 100.3 35.32 100.89 35.32C102.41 35.32 102.44 34 102.44 33.44C102.44 33.39 102.44 33.29 102.44 33.12ZM102.5 34.91C102.49 34.91 102.48 34.91 102.48 34.91C102.19 35.54 101.47 35.87 100.82 35.87C99.34 35.87 99.1 34.87 99.1 34.4C99.1 32.65 100.97 32.57 102.32 32.57C102.32 32.57 102.37 32.57 102.44 32.57C102.44 32.41 102.44 32.32 102.44 32.3C102.44 31.41 102.12 30.96 101.25 30.96C100.71 30.96 100.2 31.08 99.72 31.39C99.72 31.33 99.72 30.83 99.72 30.76C100.12 30.57 100.79 30.41 101.25 30.41C102.54 30.41 103.08 30.99 103.08 32.35C103.08 32.58 103.08 34.42 103.08 34.66C103.08 35.07 103.08 35.39 103.14 35.75C103.09 35.75 102.88 35.75 102.5 35.75L102.5 34.91Z" id="adynRWmdQ"></path><path d="M107.67 31.08L106.48 31.08C106.48 33.11 106.48 34.24 106.48 34.46C106.48 34.93 106.66 35.32 107.18 35.32C107.42 35.32 107.59 35.27 107.77 35.2C107.78 35.25 107.81 35.68 107.81 35.73C107.66 35.79 107.34 35.87 107.02 35.87C105.88 35.87 105.84 35.08 105.84 34.13C105.84 33.93 105.84 32.91 105.84 31.08L104.81 31.08L104.81 30.53L105.84 30.53L105.84 29.27L106.48 29.04L106.48 30.53L107.67 30.53L107.67 31.08Z" id="i4cRTeCoak"></path><path d="M109.62 30.53L110.27 30.53L110.27 35.75L109.62 35.75L109.62 30.53ZM110.27 29.14L109.62 29.14L109.62 28.28L110.27 28.28L110.27 29.14Z" id="b2fDwEjK7"></path><path d="M116.46 33.14C116.46 31.93 115.86 30.96 114.73 30.96C113.61 30.96 113 31.93 113 33.14C113 34.35 113.61 35.32 114.73 35.32C115.86 35.32 116.46 34.35 116.46 33.14ZM117.17 33.14C117.17 34.56 116.42 35.87 114.73 35.87C113.04 35.87 112.3 34.56 112.3 33.14C112.3 31.72 113.04 30.41 114.73 30.41C116.42 30.41 117.17 31.72 117.17 33.14Z" id="a4aOpXrHG8"></path><path d="M119.18 31.76C119.18 31.36 119.18 30.95 119.14 30.53C119.19 30.53 119.39 30.53 119.77 30.53L119.77 31.46C119.78 31.46 119.79 31.46 119.79 31.46C120 30.99 120.39 30.41 121.48 30.41C122.77 30.41 123.26 31.27 123.26 32.41C123.26 32.64 123.26 33.75 123.26 35.75L122.61 35.75C122.61 33.85 122.61 32.79 122.61 32.58C122.61 31.59 122.27 30.96 121.38 30.96C120.2 30.96 119.83 31.99 119.83 32.86C119.83 33.06 119.83 34.02 119.83 35.75L119.18 35.75C119.18 33.62 119.18 32.29 119.18 31.76Z" id="cH5IGwFzx"></path><path d="M128.82 34.99C129.21 35.19 129.68 35.32 130.18 35.32C130.79 35.32 131.34 34.98 131.34 34.39C131.34 33.15 128.83 33.34 128.83 31.83C128.83 30.8 129.67 30.41 130.53 30.41C130.8 30.41 131.36 30.47 131.82 30.64C131.81 30.7 131.76 31.15 131.76 31.2C131.42 31.05 130.96 30.96 130.6 30.96C129.93 30.96 129.47 31.16 129.47 31.83C129.47 32.8 132.04 32.68 132.04 34.39C132.04 35.49 131.01 35.87 130.22 35.87C129.72 35.87 129.22 35.81 128.76 35.63C128.77 35.5 128.81 35.12 128.82 34.99Z" id="a8U2m1Bao"></path><path d="M138.07 34.52C138.07 34.92 138.07 35.33 138.11 35.75C138.07 35.75 137.86 35.75 137.49 35.75L137.49 34.82C137.47 34.82 137.47 34.82 137.47 34.82C137.25 35.29 136.86 35.87 135.78 35.87C134.49 35.87 134 35.01 134 33.87C134 33.64 134 32.53 134 30.53L134.64 30.53C134.64 32.43 134.64 33.49 134.64 33.7C134.64 34.69 134.99 35.32 135.88 35.32C137.06 35.32 137.43 34.29 137.43 33.42C137.43 33.22 137.43 32.26 137.43 30.53L138.07 30.53C138.07 32.66 138.07 33.99 138.07 34.52Z" id="i1VDY3jqDs"></path><path d="M140.49 30.53L141.13 30.53L141.13 35.75L140.49 35.75L140.49 30.53ZM141.13 29.14L140.49 29.14L140.49 28.28L141.13 28.28L141.13 29.14Z" id="dSSqLgVDE"></path><path d="M143.16 34.99C143.55 35.19 144.02 35.32 144.52 35.32C145.13 35.32 145.68 34.98 145.68 34.39C145.68 33.15 143.17 33.34 143.17 31.83C143.17 30.8 144.01 30.41 144.87 30.41C145.14 30.41 145.7 30.47 146.16 30.64C146.15 30.7 146.1 31.15 146.1 31.2C145.76 31.05 145.3 30.96 144.94 30.96C144.27 30.96 143.81 31.16 143.81 31.83C143.81 32.8 146.38 32.68 146.38 34.39C146.38 35.49 145.35 35.87 144.56 35.87C144.06 35.87 143.56 35.81 143.1 35.63C143.11 35.5 143.15 35.12 143.16 34.99Z" id="ekcKuMlmP"></path><path d="M147.94 34.99C148.33 35.19 148.8 35.32 149.3 35.32C149.91 35.32 150.46 34.98 150.46 34.39C150.46 33.15 147.95 33.34 147.95 31.83C147.95 30.8 148.79 30.41 149.65 30.41C149.92 30.41 150.48 30.47 150.94 30.64C150.93 30.7 150.88 31.15 150.88 31.2C150.54 31.05 150.08 30.96 149.72 30.96C149.06 30.96 148.59 31.16 148.59 31.83C148.59 32.8 151.16 32.68 151.16 34.39C151.16 35.49 150.13 35.87 149.34 35.87C148.84 35.87 148.34 35.81 147.88 35.63C147.89 35.5 147.93 35.12 147.94 34.99Z" id="a4chtl8N9"></path><path d="M156.3 32.77C156.3 31.86 155.93 30.96 154.97 30.96C154.02 30.96 153.44 31.91 153.44 32.77C154.01 32.77 155.73 32.77 156.3 32.77ZM156.62 35.59C156.17 35.77 155.59 35.87 155.1 35.87C153.37 35.87 152.73 34.71 152.73 33.14C152.73 31.54 153.61 30.41 154.93 30.41C156.4 30.41 157.01 31.59 157.01 33C157.01 33.02 157.01 33.13 157.01 33.32C154.87 33.32 153.67 33.32 153.44 33.32C153.44 34.43 154.03 35.32 155.15 35.32C155.63 35.32 156.31 35.13 156.62 34.93C156.62 35.06 156.62 35.46 156.62 35.59Z" id="b3oPKNAUmq"></path><path d="M57.39 43.52C56.94 43.29 56.29 43.22 55.79 43.22C53.94 43.22 52.9 44.53 52.9 46.3C52.9 48.1 53.91 49.38 55.79 49.38C56.26 49.38 56.98 49.32 57.39 49.07C57.39 49.13 57.43 49.63 57.43 49.69C57.04 49.92 56.24 49.99 55.79 49.99C53.54 49.99 52.19 48.51 52.19 46.3C52.19 44.13 53.58 42.6 55.79 42.6C56.21 42.6 57.06 42.67 57.43 42.87C57.42 43 57.4 43.39 57.39 43.52Z" id="d1dWB3ZlfE"></path><path d="M63.55 47.26C63.55 46.05 62.95 45.08 61.82 45.08C60.7 45.08 60.09 46.05 60.09 47.26C60.09 48.47 60.7 49.44 61.82 49.44C62.95 49.44 63.55 48.47 63.55 47.26ZM64.26 47.26C64.26 48.68 63.51 49.99 61.82 49.99C60.13 49.99 59.39 48.68 59.39 47.26C59.39 45.84 60.13 44.53 61.82 44.53C63.51 44.53 64.26 45.84 64.26 47.26Z" id="e9KVPlhwI"></path><path d="M66.27 45.88C66.27 45.48 66.27 45.07 66.23 44.65C66.28 44.65 66.48 44.65 66.86 44.65L66.86 45.58C66.87 45.58 66.88 45.58 66.88 45.58C67.09 45.11 67.48 44.53 68.57 44.53C69.86 44.53 70.35 45.39 70.35 46.53C70.35 46.76 70.35 47.87 70.35 49.87L69.7 49.87C69.7 47.97 69.7 46.91 69.7 46.7C69.7 45.72 69.36 45.08 68.47 45.08C67.29 45.08 66.92 46.11 66.92 46.98C66.92 47.18 66.92 48.14 66.92 49.87L66.27 49.87C66.27 47.74 66.27 46.41 66.27 45.88Z" id="j4bNim6MdD"></path><path d="M73.2 45.2L72.15 45.2L72.15 44.65L73.2 44.65C73.2 44.42 73.2 44.3 73.2 44.27C73.2 43.18 73.25 42.07 74.59 42.07C74.79 42.07 75.07 42.1 75.19 42.17C75.19 42.23 75.15 42.68 75.15 42.74C75.02 42.66 74.82 42.62 74.64 42.62C73.76 42.62 73.85 43.58 73.85 44.2C73.85 44.23 73.85 44.38 73.85 44.65L75.03 44.65L75.03 45.2L73.85 45.2L73.85 49.87L73.2 49.87L73.2 45.2Z" id="a1mBLHqlaC"></path><path d="M80.15 46.89C80.15 45.98 79.79 45.08 78.82 45.08C77.87 45.08 77.29 46.03 77.29 46.89C77.86 46.89 79.58 46.89 80.15 46.89ZM80.47 49.71C80.02 49.89 79.44 49.99 78.96 49.99C77.23 49.99 76.58 48.83 76.58 47.26C76.58 45.66 77.46 44.53 78.78 44.53C80.26 44.53 80.86 45.72 80.86 47.12C80.86 47.14 80.86 47.25 80.86 47.45C78.72 47.45 77.53 47.45 77.29 47.45C77.29 48.55 77.88 49.44 79.01 49.44C79.48 49.44 80.17 49.25 80.47 49.05C80.47 49.18 80.47 49.58 80.47 49.71Z" id="b1xW3Kpl9g"></path><path d="M86.38 47.26C86.38 46.31 85.98 45.08 84.83 45.08C83.6 45.08 83.29 46.25 83.29 47.26C83.29 48.27 83.6 49.44 84.83 49.44C85.98 49.44 86.38 48.21 86.38 47.26ZM87.02 49.87L86.38 49.87L86.38 49.04C86.37 49.04 86.36 49.04 86.36 49.04C86.01 49.71 85.48 49.99 84.73 49.99C83.3 49.99 82.58 48.81 82.58 47.26C82.58 45.67 83.19 44.53 84.73 44.53C85.75 44.53 86.27 45.27 86.36 45.53C86.36 45.53 86.37 45.53 86.38 45.53L86.38 42.19L87.02 42.19L87.02 49.87Z" id="a9qNTyvv3C"></path><path d="M92.56 46.89C92.56 45.98 92.19 45.08 91.23 45.08C90.28 45.08 89.69 46.03 89.69 46.89C90.27 46.89 91.99 46.89 92.56 46.89ZM92.88 49.71C92.43 49.89 91.84 49.99 91.36 49.99C89.63 49.99 88.99 48.83 88.99 47.26C88.99 45.66 89.87 44.53 91.19 44.53C92.66 44.53 93.27 45.72 93.27 47.12C93.27 47.14 93.27 47.25 93.27 47.45C91.12 47.45 89.93 47.45 89.69 47.45C89.69 48.55 90.29 49.44 91.41 49.44C91.88 49.44 92.57 49.25 92.88 49.05C92.88 49.18 92.88 49.58 92.88 49.71Z" id="jyALku3w"></path><path d="M95.29 45.82C95.29 45.24 95.29 45.03 95.25 44.65C95.3 44.65 95.51 44.65 95.9 44.65L95.9 45.65C95.91 45.65 95.92 45.65 95.92 45.65C96.15 45.07 96.59 44.53 97.26 44.53C97.41 44.53 97.6 44.56 97.71 44.59C97.71 44.66 97.71 45.2 97.71 45.26C97.58 45.22 97.4 45.2 97.24 45.2C96.22 45.2 95.94 46.35 95.94 47.29C95.94 47.46 95.94 48.32 95.94 49.87L95.29 49.87C95.29 47.71 95.29 46.36 95.29 45.82Z" id="a2QWEEtdgb"></path><path d="M102.44 47.24C102.33 47.24 102.27 47.24 102.25 47.24C101.14 47.24 99.81 47.35 99.81 48.5C99.81 49.19 100.3 49.44 100.89 49.44C102.41 49.44 102.44 48.12 102.44 47.56C102.44 47.52 102.44 47.41 102.44 47.24ZM102.5 49.03C102.49 49.03 102.48 49.03 102.48 49.03C102.19 49.66 101.47 49.99 100.82 49.99C99.34 49.99 99.1 48.99 99.1 48.52C99.1 46.77 100.97 46.69 102.32 46.69C102.32 46.69 102.37 46.69 102.44 46.69C102.44 46.53 102.44 46.44 102.44 46.42C102.44 45.53 102.12 45.08 101.25 45.08C100.71 45.08 100.2 45.2 99.72 45.51C99.72 45.45 99.72 44.95 99.72 44.89C100.12 44.69 100.79 44.53 101.25 44.53C102.54 44.53 103.08 45.11 103.08 46.47C103.08 46.7 103.08 48.55 103.08 48.78C103.08 49.2 103.08 49.51 103.14 49.87C103.09 49.87 102.88 49.87 102.5 49.87L102.5 49.03Z" id="k5fbIWrF04"></path><path d="M104.94 49.33L108.08 45.2L105.06 45.2L105.06 44.65L108.83 44.65L108.83 45.2L105.68 49.32L108.83 49.32L108.83 49.87L104.94 49.87L104.94 49.33Z" id="i8IKExX9R"></path><path d="M110.76 44.65L111.41 44.65L111.41 49.87L110.76 49.87L110.76 44.65ZM111.41 43.26L110.76 43.26L110.76 42.4L111.41 42.4L111.41 43.26Z" id="h2Tu3ZwMXi"></path><path d="M117.6 47.26C117.6 46.05 116.99 45.08 115.87 45.08C114.74 45.08 114.14 46.05 114.14 47.26C114.14 48.47 114.74 49.44 115.87 49.44C116.99 49.44 117.6 48.47 117.6 47.26ZM118.3 47.26C118.3 48.68 117.56 49.99 115.87 49.99C114.18 49.99 113.43 48.68 113.43 47.26C113.43 45.84 114.18 44.53 115.87 44.53C117.56 44.53 118.3 45.84 118.3 47.26Z" id="a3pTlZT6Oh"></path><path d="M120.32 45.88C120.32 45.48 120.32 45.07 120.28 44.65C120.32 44.65 120.53 44.65 120.9 44.65L120.9 45.58C120.92 45.58 120.92 45.58 120.93 45.58C121.14 45.11 121.53 44.53 122.61 44.53C123.9 44.53 124.39 45.39 124.39 46.53C124.39 46.76 124.39 47.87 124.39 49.87L123.75 49.87C123.75 47.97 123.75 46.91 123.75 46.7C123.75 45.72 123.4 45.08 122.51 45.08C121.33 45.08 120.97 46.11 120.97 46.98C120.97 47.18 120.97 48.14 120.97 49.87L120.32 49.87C120.32 47.74 120.32 46.41 120.32 45.88Z" id="a1RCd0ltj"></path><path d="M129.99 46.89C129.99 45.98 129.63 45.08 128.66 45.08C127.71 45.08 127.13 46.03 127.13 46.89C127.7 46.89 129.42 46.89 129.99 46.89ZM130.31 49.71C129.86 49.89 129.28 49.99 128.8 49.99C127.07 49.99 126.42 48.83 126.42 47.26C126.42 45.66 127.3 44.53 128.62 44.53C130.1 44.53 130.7 45.72 130.7 47.12C130.7 47.14 130.7 47.25 130.7 47.45C128.56 47.45 127.37 47.45 127.13 47.45C127.13 48.55 127.72 49.44 128.85 49.44C129.32 49.44 130 49.25 130.31 49.05C130.31 49.18 130.31 49.58 130.31 49.71Z" id="bEAfPOkM"></path><path d="M136.15 48.96C136.57 49.23 137.06 49.38 137.72 49.38C138.6 49.38 139.33 48.93 139.33 47.92C139.33 46.51 136.05 46.34 136.05 44.47C136.05 43.32 137.06 42.6 138.32 42.6C138.66 42.6 139.23 42.65 139.72 42.84C139.71 42.9 139.62 43.42 139.61 43.48C139.29 43.31 138.79 43.22 138.31 43.22C137.57 43.22 136.76 43.52 136.76 44.45C136.76 45.88 140.04 45.89 140.04 47.98C140.04 49.42 138.8 49.99 137.69 49.99C137 49.99 136.45 49.85 136.07 49.69C136.09 49.54 136.13 49.11 136.15 48.96Z" id="a1nJmk6j03"></path><path d="M144 49.87L143.24 49.87L141.47 44.65L142.18 44.65L143.62 49.17L143.64 49.17L145.15 44.65L145.83 44.65L144 49.87Z" id="a9z3FikOt"></path><path d="M147.53 44.65L148.17 44.65L148.17 49.87L147.53 49.87L147.53 44.65ZM148.17 43.26L147.53 43.26L147.53 42.4L148.17 42.4L148.17 43.26Z" id="e1kGDeejfS"></path><path d="M150.12 49.33L153.26 45.2L150.24 45.2L150.24 44.65L154.01 44.65L154.01 45.2L150.87 49.32L154.01 49.32L154.01 49.87L150.12 49.87L150.12 49.33Z" id="c94G7LpA7n"></path><path d="M155.46 49.33L158.61 45.2L155.59 45.2L155.59 44.65L159.35 44.65L159.35 45.2L156.21 49.32L159.35 49.32L159.35 49.87L155.46 49.87L155.46 49.33Z" id="a3cOYJA2e6"></path><path d="M164.47 46.89C164.47 45.98 164.1 45.08 163.14 45.08C162.19 45.08 161.6 46.03 161.6 46.89C162.18 46.89 163.9 46.89 164.47 46.89ZM164.79 49.71C164.34 49.89 163.75 49.99 163.27 49.99C161.54 49.99 160.9 48.83 160.9 47.26C160.9 45.66 161.78 44.53 163.1 44.53C164.57 44.53 165.18 45.72 165.18 47.12C165.18 47.14 165.18 47.25 165.18 47.45C163.03 47.45 161.84 47.45 161.6 47.45C161.6 48.55 162.2 49.44 163.32 49.44C163.79 49.44 164.48 49.25 164.79 49.05C164.79 49.18 164.79 49.58 164.79 49.71Z" id="j8DzYpr8xH"></path><path d="M167.2 45.82C167.2 45.24 167.2 45.03 167.16 44.65C167.21 44.65 167.42 44.65 167.81 44.65L167.81 45.65C167.82 45.65 167.83 45.65 167.83 45.65C168.06 45.07 168.5 44.53 169.17 44.53C169.32 44.53 169.51 44.56 169.62 44.59C169.62 44.66 169.62 45.2 169.62 45.26C169.49 45.22 169.31 45.2 169.15 45.2C168.12 45.2 167.85 46.35 167.85 47.29C167.85 47.46 167.85 48.32 167.85 49.87L167.2 49.87C167.2 47.71 167.2 46.36 167.2 45.82Z" id="bWLvErDo8"></path><path d="M174.35 47.24C174.24 47.24 174.18 47.24 174.16 47.24C173.05 47.24 171.72 47.35 171.72 48.5C171.72 49.19 172.21 49.44 172.8 49.44C174.32 49.44 174.35 48.12 174.35 47.56C174.35 47.52 174.35 47.41 174.35 47.24ZM174.41 49.03C174.4 49.03 174.39 49.03 174.39 49.03C174.1 49.66 173.38 49.99 172.73 49.99C171.25 49.99 171.01 48.99 171.01 48.52C171.01 46.77 172.87 46.69 174.23 46.69C174.23 46.69 174.27 46.69 174.35 46.69C174.35 46.53 174.35 46.44 174.35 46.42C174.35 45.53 174.03 45.08 173.16 45.08C172.62 45.08 172.11 45.2 171.63 45.51C171.63 45.45 171.63 44.95 171.63 44.89C172.03 44.69 172.7 44.53 173.16 44.53C174.45 44.53 174.99 45.11 174.99 46.47C174.99 46.7 174.99 48.55 174.99 48.78C174.99 49.2 174.99 49.51 175.04 49.87C175 49.87 174.79 49.87 174.41 49.87L174.41 49.03Z" id="c36RYCyF"></path><path d="M57.39 57.64C56.94 57.41 56.29 57.34 55.79 57.34C53.94 57.34 52.9 58.65 52.9 60.42C52.9 62.22 53.91 63.5 55.79 63.5C56.26 63.5 56.98 63.44 57.39 63.19C57.39 63.25 57.43 63.75 57.43 63.81C57.04 64.04 56.24 64.11 55.79 64.11C53.54 64.11 52.19 62.63 52.19 60.42C52.19 58.25 53.58 56.72 55.79 56.72C56.21 56.72 57.06 56.79 57.43 56.99C57.42 57.12 57.4 57.51 57.39 57.64Z" id="aRjWPzyVt"></path><path d="M63.55 61.38C63.55 60.17 62.95 59.2 61.82 59.2C60.7 59.2 60.09 60.17 60.09 61.38C60.09 62.59 60.7 63.56 61.82 63.56C62.95 63.56 63.55 62.59 63.55 61.38ZM64.26 61.38C64.26 62.8 63.51 64.11 61.82 64.11C60.13 64.11 59.39 62.8 59.39 61.38C59.39 59.96 60.13 58.65 61.82 58.65C63.51 58.65 64.26 59.96 64.26 61.38Z" id="a1VRCYHCLs"></path><path d="M66.27 60C66.27 59.6 66.27 59.19 66.23 58.77C66.28 58.77 66.48 58.77 66.86 58.77L66.86 59.7C66.87 59.7 66.88 59.7 66.88 59.7C67.09 59.23 67.48 58.65 68.57 58.65C69.86 58.65 70.35 59.51 70.35 60.65C70.35 60.88 70.35 61.99 70.35 63.99L69.7 63.99C69.7 62.09 69.7 61.03 69.7 60.82C69.7 59.84 69.36 59.2 68.47 59.2C67.29 59.2 66.92 60.23 66.92 61.1C66.92 61.3 66.92 62.26 66.92 63.99L66.27 63.99C66.27 61.86 66.27 60.53 66.27 60Z" id="a2N2nZdiMv"></path><path d="M73.2 59.32L72.15 59.32L72.15 58.77L73.2 58.77C73.2 58.54 73.2 58.42 73.2 58.39C73.2 57.3 73.25 56.19 74.59 56.19C74.79 56.19 75.07 56.22 75.19 56.29C75.19 56.35 75.15 56.8 75.15 56.86C75.02 56.78 74.82 56.74 74.64 56.74C73.76 56.74 73.85 57.7 73.85 58.32C73.85 58.35 73.85 58.5 73.85 58.77L75.03 58.77L75.03 59.32L73.85 59.32L73.85 63.99L73.2 63.99L73.2 59.32Z" id="b6HduRs4P9"></path><path d="M80.15 61.01C80.15 60.1 79.79 59.2 78.82 59.2C77.87 59.2 77.29 60.15 77.29 61.01C77.86 61.01 79.58 61.01 80.15 61.01ZM80.47 63.83C80.02 64.01 79.44 64.11 78.96 64.11C77.23 64.11 76.58 62.95 76.58 61.38C76.58 59.78 77.46 58.65 78.78 58.65C80.26 58.65 80.86 59.84 80.86 61.24C80.86 61.26 80.86 61.37 80.86 61.57C78.72 61.57 77.53 61.57 77.29 61.57C77.29 62.67 77.88 63.56 79.01 63.56C79.48 63.56 80.17 63.37 80.47 63.17C80.47 63.3 80.47 63.7 80.47 63.83Z" id="cVQgwrd1t"></path><path d="M86.38 61.38C86.38 60.43 85.98 59.2 84.83 59.2C83.6 59.2 83.29 60.37 83.29 61.38C83.29 62.4 83.6 63.56 84.83 63.56C85.98 63.56 86.38 62.33 86.38 61.38ZM87.02 63.99L86.38 63.99L86.38 63.16C86.37 63.16 86.36 63.16 86.36 63.16C86.01 63.83 85.48 64.11 84.73 64.11C83.3 64.11 82.58 62.93 82.58 61.38C82.58 59.79 83.19 58.65 84.73 58.65C85.75 58.65 86.27 59.4 86.36 59.65C86.36 59.65 86.37 59.65 86.38 59.65L86.38 56.31L87.02 56.31L87.02 63.99Z" id="h10WiW0nx"></path><path d="M92.56 61.01C92.56 60.1 92.19 59.2 91.23 59.2C90.28 59.2 89.69 60.15 89.69 61.01C90.27 61.01 91.99 61.01 92.56 61.01ZM92.88 63.83C92.43 64.01 91.84 64.11 91.36 64.11C89.63 64.11 88.99 62.95 88.99 61.38C88.99 59.78 89.87 58.65 91.19 58.65C92.66 58.65 93.27 59.84 93.27 61.24C93.27 61.26 93.27 61.37 93.27 61.57C91.12 61.57 89.93 61.57 89.69 61.57C89.69 62.67 90.29 63.56 91.41 63.56C91.88 63.56 92.57 63.37 92.88 63.17C92.88 63.3 92.88 63.7 92.88 63.83Z" id="aDXICAkdz"></path><path d="M95.29 59.94C95.29 59.36 95.29 59.15 95.25 58.77C95.3 58.77 95.51 58.77 95.9 58.77L95.9 59.77C95.91 59.77 95.92 59.77 95.92 59.77C96.15 59.19 96.59 58.65 97.26 58.65C97.41 58.65 97.6 58.68 97.71 58.71C97.71 58.78 97.71 59.32 97.71 59.39C97.58 59.34 97.4 59.32 97.24 59.32C96.22 59.32 95.94 60.47 95.94 61.41C95.94 61.58 95.94 62.44 95.94 63.99L95.29 63.99C95.29 61.83 95.29 60.48 95.29 59.94Z" id="a2jEdvjWyZ"></path><path d="M102.44 61.36C102.33 61.36 102.27 61.36 102.25 61.36C101.14 61.36 99.81 61.47 99.81 62.62C99.81 63.31 100.3 63.56 100.89 63.56C102.41 63.56 102.44 62.24 102.44 61.68C102.44 61.64 102.44 61.53 102.44 61.36ZM102.5 63.15C102.49 63.15 102.48 63.15 102.48 63.15C102.19 63.78 101.47 64.11 100.82 64.11C99.34 64.11 99.1 63.11 99.1 62.64C99.1 60.89 100.97 60.81 102.32 60.81C102.32 60.81 102.37 60.81 102.44 60.81C102.44 60.65 102.44 60.56 102.44 60.54C102.44 59.65 102.12 59.2 101.25 59.2C100.71 59.2 100.2 59.32 99.72 59.63C99.72 59.57 99.72 59.07 99.72 59.01C100.12 58.81 100.79 58.65 101.25 58.65C102.54 58.65 103.08 59.23 103.08 60.59C103.08 60.82 103.08 62.67 103.08 62.9C103.08 63.32 103.08 63.63 103.14 63.99C103.09 63.99 102.88 63.99 102.5 63.99L102.5 63.15Z" id="ay171VZYm"></path><path d="M104.94 63.45L108.08 59.32L105.06 59.32L105.06 58.77L108.83 58.77L108.83 59.32L105.68 63.44L108.83 63.44L108.83 63.99L104.94 63.99L104.94 63.45Z" id="am3v62tZO"></path><path d="M110.76 58.77L111.41 58.77L111.41 63.99L110.76 63.99L110.76 58.77ZM111.41 57.38L110.76 57.38L110.76 56.52L111.41 56.52L111.41 57.38Z" id="b1JH7kVFX9"></path><path d="M117.91 62.76C117.91 63.16 117.91 63.57 117.95 63.99C117.91 63.99 117.7 63.99 117.32 63.99L117.32 63.06C117.31 63.06 117.3 63.06 117.3 63.06C117.09 63.53 116.7 64.11 115.61 64.11C114.32 64.11 113.83 63.26 113.83 62.11C113.83 61.89 113.83 60.77 113.83 58.77L114.48 58.77C114.48 60.67 114.48 61.73 114.48 61.94C114.48 62.93 114.82 63.56 115.72 63.56C116.89 63.56 117.26 62.53 117.26 61.66C117.26 61.47 117.26 60.5 117.26 58.77L117.91 58.77C117.91 60.9 117.91 62.23 117.91 62.76Z" id="g3MF4r8HT"></path><path d="M120.32 60C120.32 59.6 120.32 59.19 120.28 58.77C120.32 58.77 120.53 58.77 120.9 58.77L120.9 59.7C120.92 59.7 120.92 59.7 120.93 59.7C121.14 59.23 121.53 58.65 122.61 58.65C123.9 58.65 124.39 59.51 124.39 60.65C124.39 60.88 124.39 61.99 124.39 63.99L123.75 63.99C123.75 62.09 123.75 61.03 123.75 60.82C123.75 59.84 123.4 59.2 122.51 59.2C121.33 59.2 120.97 60.23 120.97 61.1C120.97 61.3 120.97 62.26 120.97 63.99L120.32 63.99C120.32 61.86 120.32 60.53 120.32 60Z" id="fouH1ONKO"></path><path d="M129.95 63.23C130.34 63.43 130.81 63.56 131.31 63.56C131.93 63.56 132.47 63.22 132.47 62.63C132.47 61.39 129.96 61.59 129.96 60.07C129.96 59.04 130.8 58.65 131.66 58.65C131.94 58.65 132.49 58.71 132.95 58.88C132.95 58.94 132.9 59.39 132.89 59.45C132.55 59.29 132.09 59.2 131.73 59.2C131.07 59.2 130.61 59.41 130.61 60.07C130.61 61.04 133.18 60.92 133.18 62.63C133.18 63.74 132.14 64.11 131.36 64.11C130.85 64.11 130.35 64.05 129.89 63.87C129.9 63.74 129.94 63.36 129.95 63.23Z" id="eZuqkVEOy"></path><path d="M136.94 63.99L136.19 63.99L134.42 58.77L135.12 58.77L136.57 63.29L136.59 63.29L138.1 58.77L138.78 58.77L136.94 63.99Z" id="b37h2iUCQg"></path><path d="M140.48 58.77L141.12 58.77L141.12 63.99L140.48 63.99L140.48 58.77ZM141.12 57.38L140.48 57.38L140.48 56.52L141.12 56.52L141.12 57.38Z" id="aj3hyAK7G"></path><path d="M143.07 63.45L146.21 59.32L143.19 59.32L143.19 58.77L146.96 58.77L146.96 59.32L143.81 63.44L146.96 63.44L146.96 63.99L143.07 63.99L143.07 63.45Z" id="bhMEfDTg0"></path><path d="M148.89 59.94C148.89 59.36 148.89 59.15 148.85 58.77C148.89 58.77 149.11 58.77 149.49 58.77L149.49 59.77C149.51 59.77 149.51 59.77 149.52 59.77C149.75 59.19 150.19 58.65 150.86 58.65C151.01 58.65 151.19 58.68 151.31 58.71C151.31 58.78 151.31 59.32 151.31 59.39C151.17 59.34 151 59.32 150.84 59.32C149.81 59.32 149.54 60.47 149.54 61.41C149.54 61.58 149.54 62.44 149.54 63.99L148.89 63.99C148.89 61.83 148.89 60.48 148.89 59.94Z" id="f19Dw0bktb"></path><path d="M156.04 61.36C155.93 61.36 155.86 61.36 155.85 61.36C154.74 61.36 153.4 61.47 153.4 62.62C153.4 63.31 153.9 63.56 154.49 63.56C156 63.56 156.04 62.24 156.04 61.68C156.04 61.64 156.04 61.53 156.04 61.36ZM156.1 63.15C156.08 63.15 156.08 63.15 156.08 63.15C155.79 63.78 155.06 64.11 154.42 64.11C152.93 64.11 152.7 63.11 152.7 62.64C152.7 60.89 154.56 60.81 155.91 60.81C155.92 60.81 155.96 60.81 156.04 60.81C156.04 60.65 156.04 60.56 156.04 60.54C156.04 59.65 155.72 59.2 154.85 59.2C154.3 59.2 153.79 59.32 153.31 59.63C153.31 59.57 153.31 59.07 153.31 59.01C153.71 58.81 154.39 58.65 154.85 58.65C156.14 58.65 156.68 59.23 156.68 60.59C156.68 60.82 156.68 62.67 156.68 62.9C156.68 63.32 156.68 63.63 156.73 63.99C156.69 63.99 156.48 63.99 156.1 63.99L156.1 63.15Z" id="aIzT2yjUP"></path><path d="M26.1 11.8C26.1 11.8 26.1 11.8 26.1 11.8C17.03 11.8 11.62 14.17 11.62 14.17C11.62 14.17 11.13 24.67 13.19 30.61C16.82 41.05 26.09 43.98 26.09 43.98C26.09 43.98 26.09 43.98 26.1 43.98C26.1 43.98 26.1 43.98 26.1 43.98C26.1 43.98 35.38 41.05 39.01 30.61C41.06 24.67 40.58 14.17 40.58 14.17C40.58 14.17 35.16 11.8 26.1 11.8Z" id="d1WDxmF4h"></path><path d="M35.72 23.22L35.72 29.01L28.97 29.01L28.97 35.76L23.19 35.76L23.19 29.01L16.44 29.01L16.44 23.22L23.19 23.22L23.19 16.47L28.97 16.47L28.97 23.22L35.72 23.22Z" id="e8D5m1Sta"></path></defs><g><g><g><use xlink:href="#a9e7towZ" opacity="1" fill="#000000" fill-opacity="1"></use><g><use xlink:href="#a9e7towZ" opacity="1" fill-opacity="0" stroke="#000000" stroke-width="1" stroke-opacity="0"></use></g></g><g><use xlink:href="#a6uJhP6jj" opacity="1" fill="#000000" fill-opacity="1"></use><g><use xlink:href="#a6uJhP6jj" opacity="1" fill-opacity="0" stroke="#000000" stroke-width="1" stroke-opacity="0"></use></g></g><g><use xlink:href="#a3JLbJxX6H" opacity="1" fill="#000000" fill-opacity="1"></use><g><use xlink:href="#a3JLbJxX6H" opacity="1" fill-opacity="0" stroke="#000000" stroke-width="1" stroke-opacity="0"></use></g></g><g><use xlink:href="#g16oZT6RBo" opacity="1" fill="#000000" fill-opacity="1"></use><g><use xlink:href="#g16oZT6RBo" opacity="1" fill-opacity="0" stroke="#000000" stroke-width="1" stroke-opacity="0"></use></g></g><g><use xlink:href="#l5p2gyp8af" opacity="1" fill="#000000" fill-opacity="1"></use><g><use xlink:href="#l5p2gyp8af" opacity="1" fill-opacity="0" stroke="#000000" stroke-width="1" stroke-opacity="0"></use></g></g><g><use xlink:href="#avMTC3gg6" opacity="1" fill="#000000" fill-opacity="1"></use><g><use xlink:href="#avMTC3gg6" opacity="1" fill-opacity="0" stroke="#000000" stroke-width="1" stroke-opacity="0"></use></g></g><g><use xlink:href="#a1ni8t1cV" opacity="1" fill="#000000" fill-opacity="1"></use><g><use xlink:href="#a1ni8t1cV" opacity="1" fill-opacity="0" stroke="#000000" stroke-width="1" stroke-opacity="0"></use></g></g><g><use xlink:href="#c4GVu8Sz6x" opacity="1" fill="#000000" fill-opacity="1"></use><g><use xlink:href="#c4GVu8Sz6x" opacity="1" fill-opacity="0" stroke="#000000" stroke-width="1" stroke-opacity="0"></use></g></g><g><use xlink:href="#a39YiXFoU" opacity="1" fill="#000000" fill-opacity="1"></use><g><use xlink:href="#a39YiXFoU" opacity="1" fill-opacity="0" stroke="#000000" stroke-width="1" stroke-opacity="0"></use></g></g><g><use xlink:href="#b3NMuU4Qh" opacity="1" fill="#000000" fill-opacity="1"></use><g><use xlink:href="#b3NMuU4Qh" opacity="1" fill-opacity="0" stroke="#000000" stroke-width="1" stroke-opacity="0"></use></g></g><g><use xlink:href="#b2UMO6zSDt" opacity="1" fill="#000000" fill-opacity="1"></use><g><use xlink:href="#b2UMO6zSDt" opacity="1" fill-opacity="0" stroke="#000000" stroke-width="1" stroke-opacity="0"></use></g></g><g><use xlink:href="#amAV2A9I9" opacity="1" fill="#000000" fill-opacity="1"></use><g><use xlink:href="#amAV2A9I9" opacity="1" fill-opacity="0" stroke="#000000" stroke-width="1" stroke-opacity="0"></use></g></g><g><use xlink:href="#c1M7hrP5ot" opacity="1" fill="#000000" fill-opacity="1"></use><g><use xlink:href="#c1M7hrP5ot" opacity="1" fill-opacity="0" stroke="#000000" stroke-width="1" stroke-opacity="0"></use></g></g><g><use xlink:href="#bBetT3fgJ" opacity="1" fill="#000000" fill-opacity="1"></use><g><use xlink:href="#bBetT3fgJ" opacity="1" fill-opacity="0" stroke="#000000" stroke-width="1" stroke-opacity="0"></use></g></g><g><use xlink:href="#bcKd0cZ46" opacity="1" fill="#000000" fill-opacity="1"></use><g><use xlink:href="#bcKd0cZ46" opacity="1" fill-opacity="0" stroke="#000000" stroke-width="1" stroke-opacity="0"></use></g></g><g><use xlink:href="#b3mbsd9qh" opacity="1" fill="#000000" fill-opacity="1"></use><g><use xlink:href="#b3mbsd9qh" opacity="1" fill-opacity="0" stroke="#000000" stroke-width="1" stroke-opacity="0"></use></g></g><g><use xlink:href="#e13JhmmTXd" opacity="1" fill="#000000" fill-opacity="1"></use><g><use xlink:href="#e13JhmmTXd" opacity="1" fill-opacity="0" stroke="#000000" stroke-width="1" stroke-opacity="0"></use></g></g><g><use xlink:href="#bfbYBKR86" opacity="1" fill="#000000" fill-opacity="1"></use><g><use xlink:href="#bfbYBKR86" opacity="1" fill-opacity="0" stroke="#000000" stroke-width="1" stroke-opacity="0"></use></g></g><g><use xlink:href="#e67ZGyFF3" opacity="1" fill="#000000" fill-opacity="1"></use><g><use xlink:href="#e67ZGyFF3" opacity="1" fill-opacity="0" stroke="#000000" stroke-width="1" stroke-opacity="0"></use></g></g><g><use xlink:href="#a2e9oAbnXv" opacity="1" fill="#000000" fill-opacity="1"></use><g><use xlink:href="#a2e9oAbnXv" opacity="1" fill-opacity="0" stroke="#000000" stroke-width="1" stroke-opacity="0"></use></g></g><g><use xlink:href="#c3JuERA78" opacity="1" fill="#000000" fill-opacity="1"></use><g><use xlink:href="#c3JuERA78" opacity="1" fill-opacity="0" stroke="#000000" stroke-width="1" stroke-opacity="0"></use></g></g><g><use xlink:href="#f1KvmPq81X" opacity="1" fill="#000000" fill-opacity="1"></use><g><use xlink:href="#f1KvmPq81X" opacity="1" fill-opacity="0" stroke="#000000" stroke-width="1" stroke-opacity="0"></use></g></g><g><use xlink:href="#dnN2dwk7U" opacity="1" fill="#000000" fill-opacity="1"></use><g><use xlink:href="#dnN2dwk7U" opacity="1" fill-opacity="0" stroke="#000000" stroke-width="1" stroke-opacity="0"></use></g></g><g><use xlink:href="#a10N3UagKP" opacity="1" fill="#000000" fill-opacity="1"></use><g><use xlink:href="#a10N3UagKP" opacity="1" fill-opacity="0" stroke="#000000" stroke-width="1" stroke-opacity="0"></use></g></g><g><use xlink:href="#c2kRPRZKQD" opacity="1" fill="#000000" fill-opacity="1"></use><g><use xlink:href="#c2kRPRZKQD" opacity="1" fill-opacity="0" stroke="#000000" stroke-width="1" stroke-opacity="0"></use></g></g><g><use xlink:href="#f6wzarIGpr" opacity="1" fill="#000000" fill-opacity="1"></use><g><use xlink:href="#f6wzarIGpr" opacity="1" fill-opacity="0" stroke="#000000" stroke-width="1" stroke-opacity="0"></use></g></g><g><use xlink:href="#n1ixjJOo4n" opacity="1" fill="#000000" fill-opacity="1"></use><g><use xlink:href="#n1ixjJOo4n" opacity="1" fill-opacity="0" stroke="#000000" stroke-width="1" stroke-opacity="0"></use></g></g><g><use xlink:href="#aVeHLuksp" opacity="1" fill="#000000" fill-opacity="1"></use><g><use xlink:href="#aVeHLuksp" opacity="1" fill-opacity="0" stroke="#000000" stroke-width="1" stroke-opacity="0"></use></g></g><g><use xlink:href="#b1WZDpC5N8" opacity="1" fill="#000000" fill-opacity="1"></use><g><use xlink:href="#b1WZDpC5N8" opacity="1" fill-opacity="0" stroke="#000000" stroke-width="1" stroke-opacity="0"></use></g></g><g><use xlink:href="#cLcvQpoRe" opacity="1" fill="#000000" fill-opacity="1"></use><g><use xlink:href="#cLcvQpoRe" opacity="1" fill-opacity="0" stroke="#000000" stroke-width="1" stroke-opacity="0"></use></g></g><g><use xlink:href="#b3ZACjFVcz" opacity="1" fill="#000000" fill-opacity="1"></use><g><use xlink:href="#b3ZACjFVcz" opacity="1" fill-opacity="0" stroke="#000000" stroke-width="1" stroke-opacity="0"></use></g></g><g><use xlink:href="#a1KIdsVDrm" opacity="1" fill="#000000" fill-opacity="1"></use><g><use xlink:href="#a1KIdsVDrm" opacity="1" fill-opacity="0" stroke="#000000" stroke-width="1" stroke-opacity="0"></use></g></g><g><use xlink:href="#bvZWYR5zt" opacity="1" fill="#000000" fill-opacity="1"></use><g><use xlink:href="#bvZWYR5zt" opacity="1" fill-opacity="0" stroke="#000000" stroke-width="1" stroke-opacity="0"></use></g></g><g><use xlink:href="#avCDzBKaL" opacity="1" fill="#000000" fill-opacity="1"></use><g><use xlink:href="#avCDzBKaL" opacity="1" fill-opacity="0" stroke="#000000" stroke-width="1" stroke-opacity="0"></use></g></g><g><use xlink:href="#b6d3kO4yR" opacity="1" fill="#000000" fill-opacity="1"></use><g><use xlink:href="#b6d3kO4yR" opacity="1" fill-opacity="0" stroke="#000000" stroke-width="1" stroke-opacity="0"></use></g></g><g><use xlink:href="#a10GiqVZm3" opacity="1" fill="#000000" fill-opacity="1"></use><g><use xlink:href="#a10GiqVZm3" opacity="1" fill-opacity="0" stroke="#000000" stroke-width="1" stroke-opacity="0"></use></g></g><g><use xlink:href="#a6TJApwSId" opacity="1" fill="#000000" fill-opacity="1"></use><g><use xlink:href="#a6TJApwSId" opacity="1" fill-opacity="0" stroke="#000000" stroke-width="1" stroke-opacity="0"></use></g></g><g><use xlink:href="#e7yWq3wJ9T" opacity="1" fill="#000000" fill-opacity="1"></use><g><use xlink:href="#e7yWq3wJ9T" opacity="1" fill-opacity="0" stroke="#000000" stroke-width="1" stroke-opacity="0"></use></g></g><g><use xlink:href="#b3jIu2mPXq" opacity="1" fill="#000000" fill-opacity="1"></use><g><use xlink:href="#b3jIu2mPXq" opacity="1" fill-opacity="0" stroke="#000000" stroke-width="1" stroke-opacity="0"></use></g></g><g><use xlink:href="#adynRWmdQ" opacity="1" fill="#000000" fill-opacity="1"></use><g><use xlink:href="#adynRWmdQ" opacity="1" fill-opacity="0" stroke="#000000" stroke-width="1" stroke-opacity="0"></use></g></g><g><use xlink:href="#i4cRTeCoak" opacity="1" fill="#000000" fill-opacity="1"></use><g><use xlink:href="#i4cRTeCoak" opacity="1" fill-opacity="0" stroke="#000000" stroke-width="1" stroke-opacity="0"></use></g></g><g><use xlink:href="#b2fDwEjK7" opacity="1" fill="#000000" fill-opacity="1"></use><g><use xlink:href="#b2fDwEjK7" opacity="1" fill-opacity="0" stroke="#000000" stroke-width="1" stroke-opacity="0"></use></g></g><g><use xlink:href="#a4aOpXrHG8" opacity="1" fill="#000000" fill-opacity="1"></use><g><use xlink:href="#a4aOpXrHG8" opacity="1" fill-opacity="0" stroke="#000000" stroke-width="1" stroke-opacity="0"></use></g></g><g><use xlink:href="#cH5IGwFzx" opacity="1" fill="#000000" fill-opacity="1"></use><g><use xlink:href="#cH5IGwFzx" opacity="1" fill-opacity="0" stroke="#000000" stroke-width="1" stroke-opacity="0"></use></g></g><g><use xlink:href="#a8U2m1Bao" opacity="1" fill="#000000" fill-opacity="1"></use><g><use xlink:href="#a8U2m1Bao" opacity="1" fill-opacity="0" stroke="#000000" stroke-width="1" stroke-opacity="0"></use></g></g><g><use xlink:href="#i1VDY3jqDs" opacity="1" fill="#000000" fill-opacity="1"></use><g><use xlink:href="#i1VDY3jqDs" opacity="1" fill-opacity="0" stroke="#000000" stroke-width="1" stroke-opacity="0"></use></g></g><g><use xlink:href="#dSSqLgVDE" opacity="1" fill="#000000" fill-opacity="1"></use><g><use xlink:href="#dSSqLgVDE" opacity="1" fill-opacity="0" stroke="#000000" stroke-width="1" stroke-opacity="0"></use></g></g><g><use xlink:href="#ekcKuMlmP" opacity="1" fill="#000000" fill-opacity="1"></use><g><use xlink:href="#ekcKuMlmP" opacity="1" fill-opacity="0" stroke="#000000" stroke-width="1" stroke-opacity="0"></use></g></g><g><use xlink:href="#a4chtl8N9" opacity="1" fill="#000000" fill-opacity="1"></use><g><use xlink:href="#a4chtl8N9" opacity="1" fill-opacity="0" stroke="#000000" stroke-width="1" stroke-opacity="0"></use></g></g><g><use xlink:href="#b3oPKNAUmq" opacity="1" fill="#000000" fill-opacity="1"></use><g><use xlink:href="#b3oPKNAUmq" opacity="1" fill-opacity="0" stroke="#000000" stroke-width="1" stroke-opacity="0"></use></g></g><g><use xlink:href="#d1dWB3ZlfE" opacity="1" fill="#000000" fill-opacity="1"></use><g><use xlink:href="#d1dWB3ZlfE" opacity="1" fill-opacity="0" stroke="#000000" stroke-width="1" stroke-opacity="0"></use></g></g><g><use xlink:href="#e9KVPlhwI" opacity="1" fill="#000000" fill-opacity="1"></use><g><use xlink:href="#e9KVPlhwI" opacity="1" fill-opacity="0" stroke="#000000" stroke-width="1" stroke-opacity="0"></use></g></g><g><use xlink:href="#j4bNim6MdD" opacity="1" fill="#000000" fill-opacity="1"></use><g><use xlink:href="#j4bNim6MdD" opacity="1" fill-opacity="0" stroke="#000000" stroke-width="1" stroke-opacity="0"></use></g></g><g><use xlink:href="#a1mBLHqlaC" opacity="1" fill="#000000" fill-opacity="1"></use><g><use xlink:href="#a1mBLHqlaC" opacity="1" fill-opacity="0" stroke="#000000" stroke-width="1" stroke-opacity="0"></use></g></g><g><use xlink:href="#b1xW3Kpl9g" opacity="1" fill="#000000" fill-opacity="1"></use><g><use xlink:href="#b1xW3Kpl9g" opacity="1" fill-opacity="0" stroke="#000000" stroke-width="1" stroke-opacity="0"></use></g></g><g><use xlink:href="#a9qNTyvv3C" opacity="1" fill="#000000" fill-opacity="1"></use><g><use xlink:href="#a9qNTyvv3C" opacity="1" fill-opacity="0" stroke="#000000" stroke-width="1" stroke-opacity="0"></use></g></g><g><use xlink:href="#jyALku3w" opacity="1" fill="#000000" fill-opacity="1"></use><g><use xlink:href="#jyALku3w" opacity="1" fill-opacity="0" stroke="#000000" stroke-width="1" stroke-opacity="0"></use></g></g><g><use xlink:href="#a2QWEEtdgb" opacity="1" fill="#000000" fill-opacity="1"></use><g><use xlink:href="#a2QWEEtdgb" opacity="1" fill-opacity="0" stroke="#000000" stroke-width="1" stroke-opacity="0"></use></g></g><g><use xlink:href="#k5fbIWrF04" opacity="1" fill="#000000" fill-opacity="1"></use><g><use xlink:href="#k5fbIWrF04" opacity="1" fill-opacity="0" stroke="#000000" stroke-width="1" stroke-opacity="0"></use></g></g><g><use xlink:href="#i8IKExX9R" opacity="1" fill="#000000" fill-opacity="1"></use><g><use xlink:href="#i8IKExX9R" opacity="1" fill-opacity="0" stroke="#000000" stroke-width="1" stroke-opacity="0"></use></g></g><g><use xlink:href="#h2Tu3ZwMXi" opacity="1" fill="#000000" fill-opacity="1"></use><g><use xlink:href="#h2Tu3ZwMXi" opacity="1" fill-opacity="0" stroke="#000000" stroke-width="1" stroke-opacity="0"></use></g></g><g><use xlink:href="#a3pTlZT6Oh" opacity="1" fill="#000000" fill-opacity="1"></use><g><use xlink:href="#a3pTlZT6Oh" opacity="1" fill-opacity="0" stroke="#000000" stroke-width="1" stroke-opacity="0"></use></g></g><g><use xlink:href="#a1RCd0ltj" opacity="1" fill="#000000" fill-opacity="1"></use><g><use xlink:href="#a1RCd0ltj" opacity="1" fill-opacity="0" stroke="#000000" stroke-width="1" stroke-opacity="0"></use></g></g><g><use xlink:href="#bEAfPOkM" opacity="1" fill="#000000" fill-opacity="1"></use><g><use xlink:href="#bEAfPOkM" opacity="1" fill-opacity="0" stroke="#000000" stroke-width="1" stroke-opacity="0"></use></g></g><g><use xlink:href="#a1nJmk6j03" opacity="1" fill="#000000" fill-opacity="1"></use><g><use xlink:href="#a1nJmk6j03" opacity="1" fill-opacity="0" stroke="#000000" stroke-width="1" stroke-opacity="0"></use></g></g><g><use xlink:href="#a9z3FikOt" opacity="1" fill="#000000" fill-opacity="1"></use><g><use xlink:href="#a9z3FikOt" opacity="1" fill-opacity="0" stroke="#000000" stroke-width="1" stroke-opacity="0"></use></g></g><g><use xlink:href="#e1kGDeejfS" opacity="1" fill="#000000" fill-opacity="1"></use><g><use xlink:href="#e1kGDeejfS" opacity="1" fill-opacity="0" stroke="#000000" stroke-width="1" stroke-opacity="0"></use></g></g><g><use xlink:href="#c94G7LpA7n" opacity="1" fill="#000000" fill-opacity="1"></use><g><use xlink:href="#c94G7LpA7n" opacity="1" fill-opacity="0" stroke="#000000" stroke-width="1" stroke-opacity="0"></use></g></g><g><use xlink:href="#a3cOYJA2e6" opacity="1" fill="#000000" fill-opacity="1"></use><g><use xlink:href="#a3cOYJA2e6" opacity="1" fill-opacity="0" stroke="#000000" stroke-width="1" stroke-opacity="0"></use></g></g><g><use xlink:href="#j8DzYpr8xH" opacity="1" fill="#000000" fill-opacity="1"></use><g><use xlink:href="#j8DzYpr8xH" opacity="1" fill-opacity="0" stroke="#000000" stroke-width="1" stroke-opacity="0"></use></g></g><g><use xlink:href="#bWLvErDo8" opacity="1" fill="#000000" fill-opacity="1"></use><g><use xlink:href="#bWLvErDo8" opacity="1" fill-opacity="0" stroke="#000000" stroke-width="1" stroke-opacity="0"></use></g></g><g><use xlink:href="#c36RYCyF" opacity="1" fill="#000000" fill-opacity="1"></use><g><use xlink:href="#c36RYCyF" opacity="1" fill-opacity="0" stroke="#000000" stroke-width="1" stroke-opacity="0"></use></g></g><g><use xlink:href="#aRjWPzyVt" opacity="1" fill="#000000" fill-opacity="1"></use><g><use xlink:href="#aRjWPzyVt" opacity="1" fill-opacity="0" stroke="#000000" stroke-width="1" stroke-opacity="0"></use></g></g><g><use xlink:href="#a1VRCYHCLs" opacity="1" fill="#000000" fill-opacity="1"></use><g><use xlink:href="#a1VRCYHCLs" opacity="1" fill-opacity="0" stroke="#000000" stroke-width="1" stroke-opacity="0"></use></g></g><g><use xlink:href="#a2N2nZdiMv" opacity="1" fill="#000000" fill-opacity="1"></use><g><use xlink:href="#a2N2nZdiMv" opacity="1" fill-opacity="0" stroke="#000000" stroke-width="1" stroke-opacity="0"></use></g></g><g><use xlink:href="#b6HduRs4P9" opacity="1" fill="#000000" fill-opacity="1"></use><g><use xlink:href="#b6HduRs4P9" opacity="1" fill-opacity="0" stroke="#000000" stroke-width="1" stroke-opacity="0"></use></g></g><g><use xlink:href="#cVQgwrd1t" opacity="1" fill="#000000" fill-opacity="1"></use><g><use xlink:href="#cVQgwrd1t" opacity="1" fill-opacity="0" stroke="#000000" stroke-width="1" stroke-opacity="0"></use></g></g><g><use xlink:href="#h10WiW0nx" opacity="1" fill="#000000" fill-opacity="1"></use><g><use xlink:href="#h10WiW0nx" opacity="1" fill-opacity="0" stroke="#000000" stroke-width="1" stroke-opacity="0"></use></g></g><g><use xlink:href="#aDXICAkdz" opacity="1" fill="#000000" fill-opacity="1"></use><g><use xlink:href="#aDXICAkdz" opacity="1" fill-opacity="0" stroke="#000000" stroke-width="1" stroke-opacity="0"></use></g></g><g><use xlink:href="#a2jEdvjWyZ" opacity="1" fill="#000000" fill-opacity="1"></use><g><use xlink:href="#a2jEdvjWyZ" opacity="1" fill-opacity="0" stroke="#000000" stroke-width="1" stroke-opacity="0"></use></g></g><g><use xlink:href="#ay171VZYm" opacity="1" fill="#000000" fill-opacity="1"></use><g><use xlink:href="#ay171VZYm" opacity="1" fill-opacity="0" stroke="#000000" stroke-width="1" stroke-opacity="0"></use></g></g><g><use xlink:href="#am3v62tZO" opacity="1" fill="#000000" fill-opacity="1"></use><g><use xlink:href="#am3v62tZO" opacity="1" fill-opacity="0" stroke="#000000" stroke-width="1" stroke-opacity="0"></use></g></g><g><use xlink:href="#b1JH7kVFX9" opacity="1" fill="#000000" fill-opacity="1"></use><g><use xlink:href="#b1JH7kVFX9" opacity="1" fill-opacity="0" stroke="#000000" stroke-width="1" stroke-opacity="0"></use></g></g><g><use xlink:href="#g3MF4r8HT" opacity="1" fill="#000000" fill-opacity="1"></use><g><use xlink:href="#g3MF4r8HT" opacity="1" fill-opacity="0" stroke="#000000" stroke-width="1" stroke-opacity="0"></use></g></g><g><use xlink:href="#fouH1ONKO" opacity="1" fill="#000000" fill-opacity="1"></use><g><use xlink:href="#fouH1ONKO" opacity="1" fill-opacity="0" stroke="#000000" stroke-width="1" stroke-opacity="0"></use></g></g><g><use xlink:href="#eZuqkVEOy" opacity="1" fill="#000000" fill-opacity="1"></use><g><use xlink:href="#eZuqkVEOy" opacity="1" fill-opacity="0" stroke="#000000" stroke-width="1" stroke-opacity="0"></use></g></g><g><use xlink:href="#b37h2iUCQg" opacity="1" fill="#000000" fill-opacity="1"></use><g><use xlink:href="#b37h2iUCQg" opacity="1" fill-opacity="0" stroke="#000000" stroke-width="1" stroke-opacity="0"></use></g></g><g><use xlink:href="#aj3hyAK7G" opacity="1" fill="#000000" fill-opacity="1"></use><g><use xlink:href="#aj3hyAK7G" opacity="1" fill-opacity="0" stroke="#000000" stroke-width="1" stroke-opacity="0"></use></g></g><g><use xlink:href="#bhMEfDTg0" opacity="1" fill="#000000" fill-opacity="1"></use><g><use xlink:href="#bhMEfDTg0" opacity="1" fill-opacity="0" stroke="#000000" stroke-width="1" stroke-opacity="0"></use></g></g><g><use xlink:href="#f19Dw0bktb" opacity="1" fill="#000000" fill-opacity="1"></use><g><use xlink:href="#f19Dw0bktb" opacity="1" fill-opacity="0" stroke="#000000" stroke-width="1" stroke-opacity="0"></use></g></g><g><use xlink:href="#aIzT2yjUP" opacity="1" fill="#000000" fill-opacity="1"></use><g><use xlink:href="#aIzT2yjUP" opacity="1" fill-opacity="0" stroke="#000000" stroke-width="1" stroke-opacity="0"></use></g></g><g><use xlink:href="#d1WDxmF4h" opacity="1" fill="#ff0000" fill-opacity="1"></use><g><use xlink:href="#d1WDxmF4h" opacity="1" fill-opacity="0" stroke="#000000" stroke-width="1" stroke-opacity="0"></use></g></g><g><use xlink:href="#e8D5m1Sta" opacity="1" fill="#ffffff" fill-opacity="1"></use><g><use xlink:href="#e8D5m1Sta" opacity="1" fill-opacity="0" stroke="#000000" stroke-width="1" stroke-opacity="0"></use></g></g></g></g></svg>